Perfect Blue the Movie! at 720p Video Quality (But I personally think that the resolution is not so well...well I didn't expect much from a 1997 movie :)

Please seed after you download.


--------------------------------------------------------------------------------

Cover
--------------------------------------------------------------------------------
         
http://img339.imageshack.us/img339/8601/perfectbluecursator.jpg
--------------------------------------------------------------------------------

Info
---------------------------------------------------------------------------------

Torrent Statistics
 
http://torrent-stats.info/a457/1524be34d.png
----------------------------------------------------------------------------------

General
--------

Format                                   : Flash Video
File size                                : 350 MiB
Duration                                 : 1h 21mn
Overall bit rate                         : 598 Kbps
Tagged date                              : UTC 2012-02-24 14:37:08


Video
---------------------------------------

Format                                   : AVC
Format/Info                              : Advanced Video Codec
Format profile                           : High@L4.1
Format settings, CABAC                   : Yes
Format settings, ReFrames                : 4 frames
Codec ID                                 : 7
Duration                                 : 1h 21mn
Bit rate                                 : 510 Kbps
Width                                    : 1 280 pixels
Height                                   : 688 pixels
Display aspect ratio                     : 1.85:1
Frame rate mode                          : Constant
Frame rate                               : 23.000 fps
Color space                              : YUV
Chroma subsampling                       : 4:2:0
Bit depth                                : 8 bits
Scan type                                : Progressive
Bits/(Pixel*Frame)                       : 0.025
Stream size                              : 299 MiB (86%)
Writing library                          : x264 core 115

Audio
----------------------------------

Format                                   : AAC
Format/Info                              : Advanced Audio Codec
Format profile                           : LC
Codec ID                                 : 10
Duration                                 : 1h 21mn
Bit rate                                 : 80.3 Kbps
Channel(s)                               : 2 channels
Channel positions                        : Front: L R
Sampling rate                            : 44.1 KHz
Compression mode                         : Lossy
Delay relative to video                  : 84ms
Stream size                              : 49.2 MiB (14%)


----------------------------------------------------------------------------------

Screenshots
----------------------------------------------------------------------------------
               
http://img338.imageshack.us/img338/4562/perfectblue01.png

 
http://img818.imageshack.us/img818/7802/perfectblue02.png

 
http://img90.imageshack.us/img90/4133/perfectblue03.png

 
http://img837.imageshack.us/img837/1036/perfectblue04.png

 
http://img832.imageshack.us/img832/6065/perfectblue05.png


 
----------------------------------------------------------------------------------

Story
----------------------------------------------------------------------------------

A retired pop singer turned actress's sense of reality is shaken when she is stalked by an obsessed fan and seemingly a ghost of her past.
----------------------------------------------------------------------------------

Thank you for downloading. 

Enjoy Watching :)		

----------------------------------------------------------------------------------

Facebook and Email
------------------

Facebook/Cursator (Add .com)

Cursator@ymail.com 

Thank you :)		
			
					
								
								
		